<svg id="visual" viewBox="0 0 900 600" width="900" height="600" xmlns="http://www.w3.org/2000/svg" xmlns:xlink="http://www.w3.org/1999/xlink" version="1.1"><path d="M0 109L13.7 108C27.3 107 54.7 105 82 95C109.3 85 136.7 67 163.8 74C191 81 218 113 245.2 128C272.3 143 299.7 141 327 127C354.3 113 381.7 87 409 82C436.3 77 463.7 93 491 107C518.3 121 545.7 133 573 139C600.3 145 627.7 145 654.8 137C682 129 709 113 736.2 112C763.3 111 790.7 125 818 119C845.3 113 872.7 87 886.3 74L900 61L900 0L886.3 0C872.7 0 845.3 0 818 0C790.7 0 763.3 0 736.2 0C709 0 682 0 654.8 0C627.7 0 600.3 0 573 0C545.7 0 518.3 0 491 0C463.7 0 436.3 0 409 0C381.7 0 354.3 0 327 0C299.7 0 272.3 0 245.2 0C218 0 191 0 163.8 0C136.7 0 109.3 0 82 0C54.7 0 27.3 0 13.7 0L0 0Z" fill="#b76aff"></path><path d="M0 151L13.7 149C27.3 147 54.7 143 82 139C109.3 135 136.7 131 163.8 140C191 149 218 171 245.2 186C272.3 201 299.7 209 327 195C354.3 181 381.7 145 409 138C436.3 131 463.7 153 491 171C518.3 189 545.7 203 573 215C600.3 227 627.7 237 654.8 224C682 211 709 175 736.2 173C763.3 171 790.7 203 818 199C845.3 195 872.7 155 886.3 135L900 115L900 59L886.3 72C872.7 85 845.3 111 818 117C790.7 123 763.3 109 736.2 110C709 111 682 127 654.8 135C627.7 143 600.3 143 573 137C545.7 131 518.3 119 491 105C463.7 91 436.3 75 409 80C381.7 85 354.3 111 327 125C299.7 139 272.3 141 245.2 126C218 111 191 79 163.8 72C136.7 65 109.3 83 82 93C54.7 103 27.3 105 13.7 106L0 107Z" fill="#a345ff"></path><path d="M0 331L13.7 343C27.3 355 54.7 379 82 362C109.3 345 136.7 287 163.8 292C191 297 218 365 245.2 399C272.3 433 299.7 433 327 406C354.3 379 381.7 325 409 303C436.3 281 463.7 291 491 314C518.3 337 545.7 373 573 397C600.3 421 627.7 433 654.8 424C682 415 709 385 736.2 373C763.3 361 790.7 367 818 370C845.3 373 872.7 373 886.3 373L900 373L900 113L886.3 133C872.7 153 845.3 193 818 197C790.7 201 763.3 169 736.2 171C709 173 682 209 654.8 222C627.7 235 600.3 225 573 213C545.7 201 518.3 187 491 169C463.7 151 436.3 129 409 136C381.7 143 354.3 179 327 193C299.7 207 272.3 199 245.2 184C218 169 191 147 163.8 138C136.7 129 109.3 133 82 137C54.7 141 27.3 145 13.7 147L0 149Z" fill="#8b00ff"></path><path d="M0 493L13.7 496C27.3 499 54.7 505 82 503C109.3 501 136.7 491 163.8 499C191 507 218 533 245.2 539C272.3 545 299.7 531 327 523C354.3 515 381.7 513 409 516C436.3 519 463.7 527 491 521C518.3 515 545.7 495 573 494C600.3 493 627.7 511 654.8 521C682 531 709 533 736.2 527C763.3 521 790.7 507 818 505C845.3 503 872.7 513 886.3 518L900 523L900 371L886.3 371C872.7 371 845.3 371 818 368C790.7 365 763.3 359 736.2 371C709 383 682 413 654.8 422C627.7 431 600.3 419 573 395C545.7 371 518.3 335 491 312C463.7 289 436.3 279 409 301C381.7 323 354.3 377 327 404C299.7 431 272.3 431 245.2 397C218 363 191 295 163.8 290C136.7 285 109.3 343 82 360C54.7 377 27.3 353 13.7 341L0 329Z" fill="#7900dc"></path><path d="M0 601L13.7 601C27.3 601 54.7 601 82 601C109.3 601 136.7 601 163.8 601C191 601 218 601 245.2 601C272.3 601 299.7 601 327 601C354.3 601 381.7 601 409 601C436.3 601 463.7 601 491 601C518.3 601 545.7 601 573 601C600.3 601 627.7 601 654.8 601C682 601 709 601 736.2 601C763.3 601 790.7 601 818 601C845.3 601 872.7 601 886.3 601L900 601L900 521L886.3 516C872.7 511 845.3 501 818 503C790.7 505 763.3 519 736.2 525C709 531 682 529 654.8 519C627.7 509 600.3 491 573 492C545.7 493 518.3 513 491 519C463.7 525 436.3 517 409 514C381.7 511 354.3 513 327 521C299.7 529 272.3 543 245.2 537C218 531 191 505 163.8 497C136.7 489 109.3 499 82 501C54.7 503 27.3 497 13.7 494L0 491Z" fill="#6700ba"></path></svg>